<?xml version="1.0" encoding="UTF-8"?>
<svg id="Layer_1" data-name="Layer 1" xmlns="http://www.w3.org/2000/svg" viewBox="0 0 1000 1000">
  <defs>
    <style>
      .cls-1 {
        fill: #faf8f5;
      }

      .cls-2 {
        fill: #9c8b7a;
      }
    </style>
  </defs>
  <g>
    <path class="cls-1" d="M209.32,71.41c-22.03,0-39.89,17.86-39.89,39.89v777.39c0,22.03,17.86,39.89,39.89,39.89h581.36c22.03,0,39.89-17.86,39.89-39.89V305.55l-234.13-234.13H209.32Z"/>
    <path class="cls-2" d="M790.68,938.56H209.32c-27.5,0-49.87-22.37-49.87-49.87V111.31c0-27.5,22.37-49.87,49.87-49.87h387.12c2.65,0,5.18,1.05,7.05,2.92l234.13,234.13c1.87,1.87,2.92,4.41,2.92,7.05v583.15c0,27.5-22.37,49.87-49.87,49.87ZM209.32,81.39c-16.5,0-29.92,13.42-29.92,29.92v777.39c0,16.5,13.42,29.92,29.92,29.92h581.36c16.5,0,29.92-13.42,29.92-29.92V309.68l-228.29-228.29H209.32Z"/>
  </g>
  <path class="cls-2" d="M591.01,71.41v198.74c0,22.54,18.27,40.82,40.82,40.82h198.74"/>
  <path class="cls-2" d="M501.17,182.99h-253.8c-5.51,0-9.97-4.47-9.97-9.97s4.46-9.97,9.97-9.97h253.8c5.51,0,9.97,4.47,9.97,9.97s-4.46,9.97-9.97,9.97Z"/>
  <path class="cls-2" d="M501.17,310.97h-253.8c-5.51,0-9.97-4.47-9.97-9.97s4.46-9.97,9.97-9.97h253.8c5.51,0,9.97,4.47,9.97,9.97s-4.46,9.97-9.97,9.97Z"/>
  <path class="cls-2" d="M750.29,438.95H247.37c-5.51,0-9.97-4.47-9.97-9.97s4.46-9.97,9.97-9.97h502.93c5.51,0,9.97,4.47,9.97,9.97s-4.46,9.97-9.97,9.97Z"/>
  <path class="cls-2" d="M752.63,566.92H249.71c-5.51,0-9.97-4.47-9.97-9.97s4.46-9.97,9.97-9.97h502.92c5.51,0,9.97,4.47,9.97,9.97s-4.46,9.97-9.97,9.97Z"/>
  <path class="cls-2" d="M752.63,694.9H249.71c-5.51,0-9.97-4.47-9.97-9.97s4.46-9.97,9.97-9.97h502.92c5.51,0,9.97,4.47,9.97,9.97s-4.46,9.97-9.97,9.97Z"/>
  <g>
    <path class="cls-2" d="M247.3,769.55h15.22v80.91h-15.22v-80.91ZM258.65,811.82h19.81c4.27,0,7.61-1.27,10.02-3.8s3.62-5.98,3.62-10.33-1.21-7.75-3.62-10.2c-2.42-2.45-5.76-3.68-10.02-3.68h-19.81v-14.25h21.01c5.56,0,10.41,1.17,14.55,3.5,4.15,2.34,7.39,5.62,9.72,9.84,2.33,4.23,3.5,9.16,3.5,14.79s-1.17,10.69-3.5,14.91c-2.34,4.23-5.58,7.47-9.72,9.72-4.15,2.26-9,3.38-14.55,3.38h-21.01v-13.89Z"/>
    <path class="cls-2" d="M334.25,848.29c-4.83-2.42-8.56-5.88-11.17-10.39-2.62-4.51-3.92-9.7-3.92-15.58v-24.64c0-5.88,1.31-11.07,3.92-15.58,2.62-4.51,6.36-7.97,11.23-10.39,4.87-2.42,10.45-3.62,16.73-3.62s12.1,1.23,16.97,3.68c4.87,2.46,8.61,5.92,11.23,10.39,2.62,4.47,3.92,9.64,3.92,15.52v24.64c0,5.88-1.31,11.05-3.92,15.52-2.62,4.47-6.36,7.93-11.23,10.39-4.87,2.45-10.57,3.68-17.09,3.68s-11.84-1.21-16.67-3.62ZM359.85,835.67c2.5-1.33,4.43-3.12,5.8-5.37,1.37-2.25,2.05-4.99,2.05-8.21v-24.15c0-3.22-.69-5.96-2.05-8.21-1.37-2.25-3.3-4.05-5.8-5.37-2.5-1.33-5.43-1.99-8.82-1.99s-6.22.66-8.76,1.99-4.51,3.14-5.92,5.43c-1.41,2.29-2.11,5.01-2.11,8.15v24.15c0,3.14.7,5.86,2.11,8.15,1.41,2.29,3.38,4.11,5.92,5.43s5.49,1.99,8.88,1.99,6.2-.66,8.7-1.99Z"/>
    <path class="cls-2" d="M413.65,848.41c-4.63-2.33-8.25-5.64-10.87-9.9-2.62-4.27-3.92-9.26-3.92-14.98v-53.98h15.46v53.74c0,2.9.6,5.43,1.81,7.61s2.98,3.85,5.31,5.01c2.33,1.17,5.07,1.75,8.21,1.75,4.67,0,8.43-1.31,11.29-3.92,2.86-2.62,4.29-6.1,4.29-10.45v-53.74h15.1v53.98c0,5.72-1.25,10.71-3.74,14.98-2.5,4.27-6.04,7.57-10.63,9.9s-10.02,3.5-16.3,3.5-11.37-1.17-16-3.5Z"/>
    <path class="cls-2" d="M479.17,769.55h15.22v80.91h-15.22v-80.91ZM490.52,809.4h22.1c3.78,0,6.82-1.17,9.12-3.5,2.29-2.33,3.44-5.47,3.44-9.42s-1.15-7.04-3.44-9.3c-2.29-2.25-5.34-3.38-9.12-3.38h-22.1v-14.25h23.55c5.23,0,9.84,1.09,13.83,3.26s7.08,5.25,9.3,9.24c2.21,3.99,3.32,8.68,3.32,14.07s-1.11,10.25-3.32,14.31c-2.21,4.07-5.31,7.25-9.3,9.54s-8.6,3.44-13.83,3.44h-23.55v-14.01ZM507.43,819.54l14.49-3.02,20.05,33.94h-17.87l-16.67-30.92Z"/>
    <path class="cls-2" d="M555.86,769.55h15.22v80.91h-15.22v-80.91ZM564.31,836.21h40.58v14.25h-40.58v-14.25Z"/>
    <path class="cls-2" d="M629.77,848.29c-4.83-2.42-8.56-5.88-11.17-10.39-2.62-4.51-3.92-9.7-3.92-15.58v-24.64c0-5.88,1.31-11.07,3.92-15.58,2.62-4.51,6.36-7.97,11.23-10.39,4.87-2.42,10.45-3.62,16.73-3.62s12.1,1.23,16.97,3.68c4.87,2.46,8.61,5.92,11.23,10.39,2.62,4.47,3.92,9.64,3.92,15.52v24.64c0,5.88-1.31,11.05-3.92,15.52-2.62,4.47-6.36,7.93-11.23,10.39-4.87,2.45-10.57,3.68-17.09,3.68s-11.84-1.21-16.67-3.62ZM655.37,835.67c2.5-1.33,4.43-3.12,5.8-5.37,1.37-2.25,2.05-4.99,2.05-8.21v-24.15c0-3.22-.69-5.96-2.05-8.21-1.37-2.25-3.3-4.05-5.8-5.37-2.5-1.33-5.43-1.99-8.82-1.99s-6.22.66-8.76,1.99-4.51,3.14-5.92,5.43c-1.41,2.29-2.11,5.01-2.11,8.15v24.15c0,3.14.7,5.86,2.11,8.15,1.41,2.29,3.38,4.11,5.92,5.43s5.49,1.99,8.88,1.99,6.2-.66,8.7-1.99Z"/>
    <path class="cls-2" d="M707.66,848.35c-4.75-2.37-8.41-5.76-10.99-10.14-2.58-4.39-3.86-9.48-3.86-15.28v-25.84c0-5.8,1.29-10.89,3.86-15.28,2.58-4.39,6.22-7.77,10.93-10.14,4.71-2.37,10.2-3.56,16.48-3.56s11.79,1.17,16.55,3.5c4.75,2.34,8.43,5.64,11.05,9.9,2.62,4.27,3.92,9.22,3.92,14.85v1.33h-15.46v-1.09c0-2.9-.64-5.41-1.93-7.55-1.29-2.13-3.14-3.78-5.56-4.95-2.42-1.17-5.19-1.75-8.33-1.75-4.91,0-8.88,1.37-11.9,4.11-3.02,2.74-4.53,6.36-4.53,10.87v26.21c0,2.9.66,5.49,1.99,7.79s3.24,4.07,5.74,5.31c2.5,1.25,5.35,1.87,8.57,1.87,4.83,0,8.7-1.29,11.59-3.86,2.9-2.58,4.35-6.04,4.35-10.39v-6.88l2.05,2.42h-16.42v-11.96h29.83v15.82c0,5.64-1.31,10.59-3.92,14.85-2.62,4.27-6.28,7.57-10.99,9.9s-10.2,3.5-16.48,3.5-11.8-1.19-16.55-3.56Z"/>
  </g>
</svg>