<svg xmlns="http://www.w3.org/2000/svg" viewBox="0 0 200 200">
  <g stroke="#4A2C2A" stroke-width="12" stroke-linecap="round" stroke-linejoin="round" fill="none">
    
    <path d="M 40 160 C 80 190, 160 170, 180 110" />
    
    <path d="M 50 140 C 80 165, 140 150, 150 90" />
    
    <path d="M 75 125 C 85 95, 75 65, 105 35" />
    
    <path d="M 95 135 C 105 105, 95 75, 125 45" />
    
    <path d="M 115 140 C 125 115, 115 85, 145 60" />

    <path d="M 45 80 C 25 120, 45 150, 85 140" />
  </g>
  
  <path fill="#4A2C2A" d="M 30 70 C 10 50, 25 30, 45 50 C 65 30, 80 50, 45 80 Z" />
</svg>